<?xml version="1.0" encoding="iso-8859-1"?>
<!-- Generator: Adobe Illustrator 19.0.0, SVG Export Plug-In . SVG Version: 6.00 Build 0)  -->
<svg version="1.1" id="Capa_1" xmlns="http://www.w3.org/2000/svg" xmlns:xlink="http://www.w3.org/1999/xlink" x="0px" y="0px"
	 viewBox="0 0 480 480" style="enable-background:new 0 0 480 480;" xml:space="preserve">
<g>
	<g>
		<path d="M456,231.976h-1.064l-13.712-96H448c4.418,0,8-3.582,8-8v-32c0-4.418-3.582-8-8-8H344c-4.418,0-8,3.582-8,8v168h-32v-152
			h8c4.418,0,8-3.582,8-8v-40c0-4.418-3.582-8-8-8h-24c-4.418,0-8,3.582-8,8s3.582,8,8,8h16v24H88v-24h168c4.418,0,8-3.582,8-8
			s-3.582-8-8-8H80c-4.418,0-8,3.582-8,8v40c0,4.418,3.582,8,8,8h8v24c0,4.418,3.582,8,8,8s8-3.582,8-8v-24h184v152H104v-32
			c0-4.418-3.582-8-8-8s-8,3.582-8,8v32H64c-4.418,0-8,3.582-8,8v80c0,4.418,3.582,8,8,8s8-3.582,8-8v-72h272c4.418,0,8-3.582,8-8
			v-168h88v16h-56c-4.418,0-8,3.582-8,8v24c0,4.418,3.582,8,8,8s8-3.582,8-8v-16h33.064l13.712,96H392v-48c0-4.418-3.582-8-8-8
			s-8,3.582-8,8v56c0,4.418,3.582,8,8,8h40v40c0,4.418,3.582,8,8,8h32v40c-0.026,22.08-17.92,39.974-40,40h-24.8
			c-3.827-18.611-20.199-31.976-39.2-32h-56c-4.418,0-8,3.582-8,8s3.582,8,8,8h56c13.255,0,24,10.745,24,24s-10.745,24-24,24
			s-24-10.745-24-24c0-4.418-3.582-8-8-8H199.2c-3.827-18.611-20.199-31.976-39.2-32h-24c-4.418,0-8,3.582-8,8s3.582,8,8,8h24
			c13.255,0,24,10.745,24,24s-10.745,24-24,24s-24-10.745-24-24c0-4.418-3.582-8-8-8H48c-4.418,0-8,3.582-8,8s3.582,8,8,8h72.8
			c4.396,21.65,25.51,35.636,47.16,31.24c15.741-3.196,28.044-15.499,31.24-31.24h121.6c4.396,21.65,25.51,35.636,47.16,31.24
			c15.741-3.196,28.044-15.499,31.24-31.24H424c30.913-0.035,55.965-25.087,56-56v-80C480,242.721,469.255,231.976,456,231.976z
			 M464,279.976h-24v-32h16c4.418,0,8,3.582,8,8V279.976z"/>
	</g>
</g>
<g>
	<g>
		<path d="M392,263.976h-8c-4.418,0-8,3.582-8,8s3.582,8,8,8h8c4.418,0,8-3.582,8-8S396.418,263.976,392,263.976z"/>
	</g>
</g>
<g>
	<g>
		<path d="M16,375.976H8c-4.418,0-8,3.582-8,8s3.582,8,8,8h8c4.418,0,8-3.582,8-8S20.418,375.976,16,375.976z"/>
	</g>
</g>
<g>
	<g>
		<path d="M272,343.976h-8c-4.418,0-8,3.582-8,8s3.582,8,8,8h8c4.418,0,8-3.582,8-8S276.418,343.976,272,343.976z"/>
	</g>
</g>
<g>
	<g>
		<path d="M152,159.976H72c-4.418,0-8,3.582-8,8s3.582,8,8,8h80c4.418,0,8-3.582,8-8S156.418,159.976,152,159.976z"/>
	</g>
</g>
<g>
	<g>
		<path d="M40,159.976h-8c-4.418,0-8,3.582-8,8s3.582,8,8,8h8c4.418,0,8-3.582,8-8S44.418,159.976,40,159.976z"/>
	</g>
</g>
<g>
	<g>
		<path d="M184,191.976h-80c-4.418,0-8,3.582-8,8s3.582,8,8,8h80c4.418,0,8-3.582,8-8S188.418,191.976,184,191.976z"/>
	</g>
</g>
<g>
	<g>
		<path d="M72,191.976h-8c-4.418,0-8,3.582-8,8s3.582,8,8,8h8c4.418,0,8-3.582,8-8S76.418,191.976,72,191.976z"/>
	</g>
</g>
<g>
	<g>
		<path d="M344,295.976H112c-4.418,0-8,3.582-8,8s3.582,8,8,8h232c4.418,0,8-3.582,8-8S348.418,295.976,344,295.976z"/>
	</g>
</g>
<g>
	<g>
		<circle cx="160" cy="383.976" r="8"/>
	</g>
</g>
<g>
	<g>
		<circle cx="360" cy="383.976" r="8"/>
	</g>
</g>
<g>
</g>
<g>
</g>
<g>
</g>
<g>
</g>
<g>
</g>
<g>
</g>
<g>
</g>
<g>
</g>
<g>
</g>
<g>
</g>
<g>
</g>
<g>
</g>
<g>
</g>
<g>
</g>
<g>
</g>
</svg>
