<?xml version="1.0" encoding="iso-8859-1"?>
<!-- Generator: Adobe Illustrator 19.0.0, SVG Export Plug-In . SVG Version: 6.00 Build 0)  -->
<svg version="1.1" id="Capa_1" xmlns="http://www.w3.org/2000/svg" xmlns:xlink="http://www.w3.org/1999/xlink" x="0px" y="0px"
	 viewBox="0 0 511.911 511.911" style="enable-background:new 0 0 511.911 511.911;" xml:space="preserve">
<path style="fill:#D7E9FF;" d="M115.98,366.981c-5.601-0.242-10.959-0.484-15.997-0.805c-21.676-1.117-38.392-2.156-47.991-2.797
	c-3.921-0.319-6.64-0.483-7.999-0.562c-9.357-0.641-17.598-2-23.995-4.32v-0.078c-10.077-3.601-15.997-9.756-15.997-19.52
	c0,4.64,29.514,7.201,41.031,7.92l2.082,0.164c234.36,15.912,430.325,4.32,460.796-24.081c0,10.318-8.796,18.481-23.996,25.034
	c-4.718,2-10.076,3.922-15.997,5.601c-4.96,1.445-10.318,2.805-15.997,3.999c-9.756,2.086-20.473,3.922-31.994,5.445
	c-10.076,1.358-20.793,2.476-31.994,3.437c-5.202,0.477-10.561,0.882-15.997,1.28c-5.28,0.32-10.561,0.641-15.997,0.961
	c-5.28,0.32-10.639,0.555-15.997,0.797c-5.28,0.242-10.639,0.398-15.998,0.562c-5.279,0.156-10.639,0.32-15.996,0.398
	c-5.281,0.156-10.639,0.242-15.998,0.32c-5.279,0.078-10.639,0.078-15.996,0.078c-5.359,0.078-10.639,0.078-15.998,0.078
	c-5.358,0-10.717-0.078-15.997-0.078c-5.358-0.078-10.717-0.078-15.998-0.156c-5.358-0.086-10.717-0.242-15.997-0.32
	c-5.358-0.086-10.717-0.242-15.997-0.32c-5.44-0.164-10.717-0.32-15.997-0.484c-5.44-0.156-10.717-0.32-15.997-0.555
	c-5.44-0.164-10.799-0.32-15.997-0.562c-5.519-0.242-10.799-0.398-15.997-0.641C126.458,367.535,121.1,367.301,115.98,366.981z"/>
<g>
	<path style="fill:#FFFFFF;" d="M53.671,303.391c57.271,5.359,116.94,11.193,174.289,15.193
		c115.98,7.998,222.437,8.162,279.951-19.677v15.997v7.999c-30.472,28.401-226.437,39.993-460.796,24.081l-2.082-0.164
		c-11.518-0.719-41.031-3.28-41.031-7.92v-7.999v-31.994C20.236,300.352,36.873,301.868,53.671,303.391z"/>
	<path style="fill:#FFFFFF;" d="M219.961,143.416c43.993,45.75,115.979,68.628,176.929,87.102l-0.961,4.397
		c0,0,0,12.24-15.997,7.999c0,0-15.919-0.96-41.516-8.233c-31.354-9.037-77.342-27.597-125.974-66.074h-0.082
		c-5.437-4.319-10.877-8.873-16.396-13.677l-6.319-5.593C203.726,141.893,214.923,138.214,219.961,143.416z"/>
</g>
<path style="fill:#94C1FF;" d="M40.392,168.606l-4.397,10.319c-5.921,15.997-15.997,23.996-15.997,23.996l-10.717,6.804
	c2.479-21.762,5.917-40.876,10.717-46.797C24.075,157.89,31.195,161.889,40.392,168.606z"/>
<g>
	<path style="fill:#D7E9FF;" d="M215.962,226.916c15.439,0,27.995,12.56,27.995,27.995c0,15.446-12.556,27.999-27.995,27.999
		c-15.438,0-27.995-12.553-27.995-27.999C187.967,239.476,200.523,226.916,215.962,226.916z"/>
	<path style="fill:#D7E9FF;" d="M507.91,298.907c-57.514,27.839-163.971,27.675-279.951,19.677l23.996-11.678
		c40.469-16.794,35.034-67.031,63.989-71.991h22.395l0.078-0.234c25.597,7.272,41.516,8.233,41.516,8.233
		c15.997,4.242,15.997-7.999,15.997-7.999l0.961-4.397c61.028,18.395,111.02,32.393,111.02,60.392v7.997H507.91z"/>
</g>
<path style="fill:#94C1FF;" d="M91.984,290.909c63.989-23.996,74.307-105.345,113.261-119.982h1.757l5.358-2.32h0.082
	c48.632,38.478,94.621,57.037,125.974,66.074l-0.078,0.234h-22.395c-28.955,4.96-23.52,55.197-63.989,71.991l-23.996,11.678
	c-57.349-4-117.018-9.834-174.289-15.193L91.984,290.909z M243.957,254.911c0-15.435-12.556-27.995-27.995-27.995
	c-15.438,0-27.995,12.56-27.995,27.995c0,15.446,12.556,27.999,27.995,27.999S243.957,270.357,243.957,254.911z"/>
<path style="fill:#D7E9FF;" d="M40.392,168.606c15.2,11.045,36.235,29.44,59.591,26.316c24.714-3.359,62.547-31.268,89.664-45.585
	l6.319,5.593c5.519,4.804,10.959,9.357,16.396,13.677l-5.358,2.32h-1.757c-38.954,14.638-49.272,95.986-113.261,119.982
	L53.673,303.39c-16.797-1.522-33.435-3.038-49.67-4.483v-7.998c0,0,1.199-44.316,5.28-81.185L20,202.92
	c0,0,10.076-7.999,15.997-23.996L40.392,168.606z"/>
<path style="fill:#FFFFFF;" d="M27.996,358.498v-0.078c-10.076-3.601-15.997-9.756-15.997-19.52v-7.999v-31.994v-7.998
	c0,0,1.199-44.316,5.28-81.185c2.48-21.762,5.917-40.876,10.717-46.797c0.391-0.484,0.836-0.812,1.281-1.132
	c-3.886-1.617-7.054-1.617-9.279,1.132c-4.8,5.921-8.237,25.035-10.717,46.797c-4.082,36.868-5.28,81.185-5.28,81.185v7.998v31.994
	v7.999c0,9.764,5.92,15.919,15.997,19.52v0.078c6.397,2.32,14.638,3.68,23.995,4.32c1.359,0.078,4.078,0.242,7.999,0.562v-0.562
	C42.634,362.178,34.393,360.818,27.996,358.498z"/>
<g style="opacity:0.2;">
	<path style="fill:#FFFFFF;" d="M27.996,162.928c0.391-0.484,0.836-0.812,1.281-1.132c-0.93-0.39-1.812-0.664-2.656-0.851
		c-0.055-0.016-0.113-0.031-0.168-0.047c-0.765-0.156-1.48-0.188-2.171-0.156c-0.109,0.008-0.23-0.008-0.336,0
		c-0.629,0.07-1.207,0.266-1.766,0.523c-0.125,0.055-0.265,0.07-0.386,0.141c-0.652,0.359-1.253,0.851-1.796,1.522
		c-4.8,5.921-8.237,25.035-10.717,46.797l8.67-5.499C20.369,184.814,23.606,168.341,27.996,162.928z"/>
</g>
<path style="fill:#94C1FF;" d="M396.891,230.517c-60.95-18.474-132.937-41.352-176.929-87.102l-15.735-0.633
	c44.566,58.06,123.716,77.26,184.667,95.733c61.027,18.395,111.019,32.396,111.019,60.391v3.452
	c2.719-1.116,5.468-2.226,7.999-3.452v-7.998C507.91,262.91,457.919,248.913,396.891,230.517z"/>
<path style="fill:#D7E9FF;" d="M388.893,238.516c1.78,0.539,3.515,1.062,5.28,1.585c1.702-2.437,1.757-5.187,1.757-5.187
	l0.961-4.397c-60.95-18.474-132.937-41.352-176.929-87.102l-15.735-0.633C248.792,200.843,327.942,220.043,388.893,238.516z"/>
<path style="fill:#FFFFFF;" d="M12.405,342.915c-0.246-1.273-0.406-2.593-0.406-4.015v-7.999v-31.275
	c-2.655-0.242-5.362-0.484-7.998-0.719v31.994v7.999C4,340.478,7.449,341.806,12.405,342.915z"/>
<g>
	<path style="fill:#116FFF;" d="M264.399,374.956c-87.969,0-175.809-5.108-218.637-8.021l-2.035-0.133
		c-10.814-0.727-43.726-2.922-43.726-27.909c0-2.211,1.789-4,4-4c2.21,0,3.999,1.789,3.999,4c0,7.514,3.757,17.754,36.259,19.926
		l2.043,0.141c191.899,13.037,411.329,13.553,451.633-24.113c4.023-3.757,5.977-7.662,5.977-11.95c0-2.211,1.788-3.999,3.999-3.999
		c2.21,0,3.999,1.788,3.999,3.999c0,6.53-2.867,12.513-8.514,17.794C474.517,367.676,369.372,374.956,264.399,374.956z"/>
	<path style="fill:#116FFF;" d="M249.218,358.201c-61.649,0-130.438-2.335-202.37-7.225l-2.047-0.133c-44.8-3-44.8-8.39-44.8-11.951
		c0-2.211,1.789-4,4-4c1.648,0,3.065,1,3.679,2.422c3.121,1.75,16.614,4.141,37.646,5.546l2.051,0.133
		c252.736,17.185,431.227,1.797,457.808-23.02c1.609-1.507,4.132-1.421,5.647,0.195c1.508,1.609,1.422,4.14-0.195,5.647
		C488.374,346.609,386.51,358.201,249.218,358.201z"/>
	<path style="fill:#116FFF;" d="M507.91,318.896c-2.211,0-3.999-1.789-3.999-4v-15.997c0-2.21,1.788-3.999,3.999-3.999
		c2.21,0,3.999,1.789,3.999,3.999v15.997C511.909,317.107,510.12,318.896,507.91,318.896z"/>
	<path style="fill:#116FFF;" d="M4,334.893c-2.211,0-4-1.788-4-3.999V298.9c0-2.21,1.789-3.999,4-3.999
		c2.21,0,3.999,1.789,3.999,3.999v31.994C7.999,333.104,6.21,334.893,4,334.893z"/>
	<path style="fill:#116FFF;" d="M345.486,327.34c-79.923,0-173.84-8.826-266.074-17.505c-25.722-2.421-51.116-4.812-75.76-6.952
		c-2.199-0.188-3.828-2.132-3.636-4.327c0.191-2.202,2.156-3.772,4.332-3.64c24.659,2.141,50.073,4.53,75.814,6.952
		c161.857,15.224,345.317,32.494,426.005-6.569c1.991-0.961,4.374-0.133,5.343,1.859c0.961,1.983,0.133,4.382-1.859,5.342
		C471.603,320.919,413.622,327.34,345.486,327.34z"/>
	<path style="fill:#116FFF;" d="M4.004,294.9c-0.039,0-0.074,0-0.109,0c-2.211-0.062-3.953-1.898-3.894-4.108
		c0.312-11.6,3.425-113.819,16.891-130.395c7.288-8.983,18.364-0.688,31.178,8.928c14.373,10.771,32.244,24.238,51.385,21.621
		c16.431-2.187,40.286-16.669,61.333-29.44c28.959-17.583,51.838-31.471,62.055-20.855c44.899,46.687,120.909,69.604,181.984,88.023
		c59.825,18.044,107.082,32.299,107.082,62.228c0,2.21-1.789,3.999-3.999,3.999c-2.211,0-3.999-1.789-3.999-3.999
		c0-23.988-46.992-38.161-101.396-54.564c-61.965-18.692-139.084-41.946-185.436-90.14c-5.788-6.022-31.482,9.608-52.139,22.144
		c-22.781,13.826-46.335,28.128-64.43,30.542c-22.379,2.968-42.523-12.131-57.236-23.16c-8.725-6.53-17.754-13.302-20.172-10.279
		C14.198,176.404,9.191,246.54,7.999,291.012C7.941,293.182,6.16,294.9,4.004,294.9z"/>
	<path style="fill:#116FFF;" d="M386.049,247.804c-2.171,0-4.554-0.344-7.14-1.031c-2.14-0.57-3.405-2.757-2.843-4.89
		c0.562-2.141,2.726-3.429,4.89-2.844c4.194,1.125,7.343,1.016,9.092-0.289c1.789-1.343,1.883-3.866,1.883-3.897
		c0.07-2.171,1.93-3.687,4.054-3.913c2.188,0.031,3.944,1.781,3.944,3.968c0,0.648-0.141,6.437-4.959,10.146
		C392.587,246.882,389.602,247.804,386.049,247.804z"/>
	<path style="fill:#116FFF;" d="M379.933,246.905c-0.078,0-0.156,0-0.234-0.008c-0.906-0.055-91.944-6.288-186.369-88.969
		c-1.66-1.453-1.828-3.983-0.371-5.64c1.457-1.671,3.979-1.827,5.644-0.375c92.378,80.892,180.682,86.945,181.565,87
		c2.203,0.125,3.891,2.023,3.758,4.226C383.8,245.265,382.042,246.905,379.933,246.905z"/>
	<path style="fill:#116FFF;" d="M364.053,238.906c-0.991,0-1.999-0.125-3.007-0.382c-3.102-0.805-5.702-2.765-7.335-5.538
		c-1.624-2.757-2.069-5.991-1.258-9.092c0.555-2.14,2.766-3.444,4.874-2.851c2.141,0.554,3.422,2.741,2.859,4.874
		c-0.266,1.031-0.117,2.101,0.422,3.015c0.539,0.922,1.406,1.578,2.445,1.844c2.155,0.539,4.318-0.734,4.881-2.867
		c0.555-2.147,2.742-3.444,4.875-2.858c2.14,0.555,3.421,2.742,2.858,4.882C374.262,235.321,369.38,238.906,364.053,238.906z"/>
	<path style="fill:#116FFF;" d="M330.793,227.518c-1.374,0-2.757-0.242-4.093-0.727c-3.015-1.085-5.421-3.289-6.788-6.194
		c-1.351-2.906-1.499-6.163-0.397-9.17c0.757-2.078,3.069-3.14,5.123-2.39c2.078,0.758,3.148,3.054,2.391,5.124
		c-0.367,1-0.32,2.085,0.133,3.046c0.453,0.969,1.258,1.703,2.266,2.062c2.054,0.75,4.366-0.32,5.124-2.398
		c0.749-2.07,3.046-3.14,5.124-2.39c2.077,0.75,3.147,3.046,2.39,5.124c-1.093,3.007-3.288,5.413-6.187,6.772
		C334.254,227.135,332.527,227.518,330.793,227.518z"/>
	<path style="fill:#116FFF;" d="M300.408,215.544c-1.344,0-2.687-0.227-3.991-0.688c-3.039-1.07-5.468-3.258-6.851-6.155
		c-1.375-2.89-1.547-6.147-0.469-9.163c0.734-2.07,3.03-3.187,5.108-2.421c2.078,0.734,3.164,3.023,2.422,5.108
		c-0.352,1-0.297,2.078,0.156,3.031c0.461,0.968,1.273,1.695,2.288,2.054c1.016,0.359,2.086,0.289,3.055-0.164
		c0.968-0.469,1.694-1.273,2.046-2.281c0.734-2.093,3.055-3.164,5.101-2.445c2.086,0.734,3.18,3.023,2.445,5.101
		c-1.07,3.023-3.241,5.452-6.132,6.835C303.938,215.145,302.174,215.544,300.408,215.544z"/>
	<path style="fill:#116FFF;" d="M269.57,199.546c-1.82,0-3.633-0.421-5.312-1.25c-2.875-1.43-5.027-3.89-6.05-6.937
		c-1.02-3.038-0.793-6.288,0.637-9.154c0.987-1.969,3.374-2.789,5.366-1.789c1.976,0.984,2.772,3.39,1.788,5.366
		c-0.476,0.945-0.546,2.023-0.211,3.031c0.344,1.016,1.062,1.835,2.023,2.312s2.03,0.531,3.054,0.203
		c1.008-0.344,1.828-1.055,2.305-2.015c0.984-1.992,3.39-2.781,5.358-1.812c1.984,0.984,2.788,3.382,1.812,5.358
		c-1.422,2.874-3.882,5.022-6.913,6.046C272.163,199.336,270.866,199.546,269.57,199.546z"/>
	<path style="fill:#116FFF;" d="M238.93,178.847c-2.3,0-4.624-0.664-6.674-2.039c-2.679-1.82-4.483-4.554-5.085-7.718
		c-0.598-3.14,0.059-6.319,1.855-8.959c1.25-1.828,3.734-2.297,5.558-1.055c1.828,1.242,2.301,3.726,1.059,5.554
		c-0.594,0.875-0.812,1.922-0.613,2.96c0.199,1.062,0.809,1.976,1.707,2.585c1.82,1.211,4.304,0.727,5.542-1.094
		c1.234-1.835,3.718-2.327,5.554-1.078c1.831,1.234,2.312,3.718,1.078,5.546C246.589,176.988,242.793,178.847,238.93,178.847z"/>
	<path style="fill:#116FFF;" d="M483.914,351.961c-2.21,0-3.999-1.789-3.999-4v-4.319c0-2.21,1.789-3.999,3.999-3.999
		c2.211,0,3.999,1.789,3.999,3.999v4.319C487.913,350.172,486.125,351.961,483.914,351.961z"/>
	<path style="fill:#116FFF;" d="M467.917,357.568c-2.211,0-3.999-1.788-3.999-3.999v-4.054c0-2.211,1.788-3.999,3.999-3.999
		s3.999,1.788,3.999,3.999v4.054C471.916,355.78,470.128,357.568,467.917,357.568z"/>
	<path style="fill:#116FFF;" d="M451.92,361.568c-2.21,0-3.999-1.789-3.999-4v-3.999c0-2.21,1.789-3.999,3.999-3.999
		s3.999,1.789,3.999,3.999v3.999C455.919,359.779,454.13,361.568,451.92,361.568z"/>
	<path style="fill:#116FFF;" d="M435.923,364.606c-2.211,0-3.999-1.788-3.999-3.999v-4.249c0-2.211,1.788-3.999,3.999-3.999
		s3.999,1.788,3.999,3.999v4.249C439.922,362.818,438.134,364.606,435.923,364.606z"/>
	<path style="fill:#116FFF;" d="M419.926,367.005c-2.211,0-3.999-1.789-3.999-3.999v-3.992c0-2.211,1.788-3.999,3.999-3.999
		c2.21,0,3.999,1.788,3.999,3.999v3.992C423.925,365.216,422.136,367.005,419.926,367.005z"/>
	<path style="fill:#116FFF;" d="M403.929,368.762c-2.211,0-4-1.788-4-3.999v-4.155c0-2.211,1.789-4,4-4s3.999,1.789,3.999,4v4.155
		C407.928,366.974,406.14,368.762,403.929,368.762z"/>
	<path style="fill:#116FFF;" d="M387.932,370.457c-2.211,0-3.999-1.789-3.999-3.999v-3.772c0-2.211,1.788-4,3.999-4
		c2.21,0,3.999,1.789,3.999,4v3.772C391.931,368.668,390.142,370.457,387.932,370.457z"/>
	<path style="fill:#116FFF;" d="M371.934,371.691c-2.211,0-4-1.789-4-4v-4.054c0-2.21,1.789-3.999,4-3.999
		c2.21,0,3.999,1.789,3.999,3.999v4.054C375.934,369.902,374.144,371.691,371.934,371.691z"/>
	<path style="fill:#116FFF;" d="M355.937,372.676c-2.211,0-3.999-1.789-3.999-4v-4.038c0-2.21,1.788-3.999,3.999-3.999
		c2.21,0,3.999,1.789,3.999,3.999v4.038C359.936,370.887,358.147,372.676,355.937,372.676z"/>
	<path style="fill:#116FFF;" d="M339.94,373.441c-2.211,0-4-1.789-4-4v-4.21c0-2.21,1.789-3.999,4-3.999
		c2.21,0,3.999,1.789,3.999,3.999v4.21C343.939,371.652,342.15,373.441,339.94,373.441z"/>
	<path style="fill:#116FFF;" d="M323.942,374.027c-2.21,0-3.999-1.789-3.999-4v-4.358c0-2.211,1.789-3.999,3.999-3.999
		c2.211,0,4,1.788,4,3.999v4.358C327.942,372.238,326.153,374.027,323.942,374.027z"/>
	<path style="fill:#116FFF;" d="M307.946,374.44c-2.211,0-4-1.788-4-3.999v-3.983c0-2.211,1.789-3.999,4-3.999
		c2.21,0,3.999,1.788,3.999,3.999v3.983C311.945,372.652,310.156,374.44,307.946,374.44z"/>
	<path style="fill:#116FFF;" d="M291.948,374.714c-2.21,0-3.999-1.788-3.999-3.999v-4.257c0-2.211,1.789-3.999,3.999-3.999
		c2.211,0,4,1.788,4,3.999v4.257C295.948,372.926,294.159,374.714,291.948,374.714z"/>
	<path style="fill:#116FFF;" d="M275.952,374.87c-2.211,0-4-1.788-4-3.999v-4.218c0-2.211,1.789-3.999,4-3.999
		c2.21,0,3.999,1.788,3.999,3.999v4.218C279.951,373.082,278.162,374.87,275.952,374.87z"/>
	<path style="fill:#116FFF;" d="M259.954,374.886c-2.21,0-4-1.788-4-3.999v-4.233c0-2.211,1.79-3.999,4-3.999
		c2.211,0,4,1.788,4,3.999v4.233C263.954,373.098,262.165,374.886,259.954,374.886z"/>
	<path style="fill:#116FFF;" d="M243.957,374.808c-2.21,0-4-1.788-4-3.999v-4.155c0-2.211,1.789-3.999,4-3.999s4,1.788,4,3.999
		v4.155C247.956,373.019,246.167,374.808,243.957,374.808z"/>
	<path style="fill:#116FFF;" d="M227.959,374.62c-2.21,0-3.999-1.788-3.999-3.999v-4.163c0-2.211,1.789-3.999,3.999-3.999
		c2.211,0,4,1.788,4,3.999v4.163C231.959,372.832,230.17,374.62,227.959,374.62z"/>
	<path style="fill:#116FFF;" d="M211.962,374.339c-2.21,0-3.999-1.788-3.999-3.999v-3.882c0-2.211,1.789-3.999,3.999-3.999
		c2.211,0,4,1.788,4,3.999v3.882C215.962,372.551,214.173,374.339,211.962,374.339z"/>
	<path style="fill:#116FFF;" d="M195.965,373.98c-2.21,0-3.999-1.789-3.999-4v-4.093c0-2.211,1.789-3.999,3.999-3.999
		c2.211,0,4,1.788,4,3.999v4.093C199.965,372.191,198.176,373.98,195.965,373.98z"/>
	<path style="fill:#116FFF;" d="M179.968,373.535c-2.21,0-3.999-1.789-3.999-4v-3.866c0-2.211,1.789-3.999,3.999-3.999
		c2.211,0,4,1.788,4,3.999v3.866C183.968,371.746,182.179,373.535,179.968,373.535z"/>
	<path style="fill:#116FFF;" d="M163.971,373.012c-2.21,0-3.999-1.789-3.999-4v-3.78c0-2.21,1.789-3.999,3.999-3.999
		c2.211,0,4,1.789,4,3.999v3.78C167.971,371.223,166.182,373.012,163.971,373.012z"/>
	<path style="fill:#116FFF;" d="M147.974,372.402c-2.21,0-3.999-1.789-3.999-4v-4.069c0-2.21,1.789-3.999,3.999-3.999
		c2.211,0,4,1.789,4,3.999v4.069C151.974,370.613,150.185,372.402,147.974,372.402z"/>
	<path style="fill:#116FFF;" d="M131.977,371.746c-2.21,0-3.999-1.789-3.999-4v-3.983c0-2.21,1.789-3.999,3.999-3.999
		c2.211,0,3.999,1.789,3.999,3.999v3.983C135.976,369.957,134.188,371.746,131.977,371.746z"/>
	<path style="fill:#116FFF;" d="M115.98,371.004c-2.21,0-3.999-1.789-3.999-3.999v-4.116c0-2.211,1.789-4,3.999-4
		s3.999,1.789,3.999,4v4.116C119.979,369.215,118.19,371.004,115.98,371.004z"/>
	<path style="fill:#116FFF;" d="M99.983,370.199c-2.21,0-3.999-1.789-3.999-3.999v-4.062c0-2.211,1.789-4,3.999-4
		s3.999,1.789,3.999,4v4.062C103.982,368.41,102.193,370.199,99.983,370.199z"/>
	<path style="fill:#116FFF;" d="M83.986,369.316c-2.211,0-3.999-1.789-3.999-3.999v-4.054c0-2.211,1.788-4,3.999-4
		c2.21,0,3.999,1.789,3.999,4v4.054C87.985,367.527,86.196,369.316,83.986,369.316z"/>
	<path style="fill:#116FFF;" d="M67.989,368.371c-2.211,0-3.999-1.788-3.999-3.999v-3.983c0-2.211,1.788-3.999,3.999-3.999
		c2.21,0,3.999,1.788,3.999,3.999v3.983C71.988,366.583,70.199,368.371,67.989,368.371z"/>
	<path style="fill:#116FFF;" d="M51.992,367.348c-2.211,0-4-1.788-4-3.999v-3.96c0-2.211,1.789-3.999,4-3.999
		c2.21,0,3.999,1.788,3.999,3.999v3.96C55.991,365.559,54.202,367.348,51.992,367.348z"/>
	<path style="fill:#116FFF;" d="M35.995,366.052c-2.211,0-4-1.789-4-3.999v-4c0-2.21,1.789-3.999,4-3.999
		c2.21,0,3.999,1.789,3.999,3.999v4C39.994,364.263,38.205,366.052,35.995,366.052z"/>
	<path style="fill:#116FFF;" d="M19.997,362.467c-2.211,0-4-1.789-4-4v-4.28c0-2.21,1.789-3.999,4-3.999
		c2.21,0,3.999,1.789,3.999,3.999v4.28C23.997,360.678,22.207,362.467,19.997,362.467z"/>
	<path style="fill:#116FFF;" d="M251.955,310.897c-1.566,0-3.058-0.93-3.695-2.468c-0.843-2.039,0.125-4.383,2.164-5.227
		c19.809-8.201,28.035-25.464,35.292-40.691c7.061-14.817,13.731-28.815,29.549-31.549c2.141-0.375,4.25,1.085,4.624,3.265
		c0.375,2.18-1.085,4.25-3.265,4.624c-11.74,2.023-17.013,13.092-23.691,27.101c-7.873,16.528-16.801,35.268-39.446,44.641
		C252.987,310.804,252.467,310.897,251.955,310.897z"/>
	<path style="fill:#116FFF;" d="M91.984,294.9c-1.617,0-3.144-0.992-3.746-2.594c-0.773-2.069,0.273-4.374,2.34-5.146
		c34.661-12.998,53.236-43.864,69.62-71.093c13.556-22.527,25.265-41.977,43.605-48.89c2.066-0.804,4.378,0.266,5.151,2.328
		c0.781,2.07-0.266,4.374-2.332,5.155c-15.743,5.929-26.784,24.285-39.571,45.531c-17.059,28.346-36.396,60.477-73.663,74.451
		C92.925,294.822,92.453,294.9,91.984,294.9z"/>
	<path style="fill:#116FFF;" d="M20.005,206.912c-1.176,0-2.34-0.516-3.133-1.507c-1.371-1.726-1.085-4.242,0.633-5.616
		c0.094-0.078,9.342-7.616,14.736-22.253c0.769-2.07,3.066-3.141,5.136-2.367c2.074,0.758,3.132,3.062,2.371,5.132
		c-6.21,16.856-16.821,25.394-17.267,25.746C21.747,206.631,20.872,206.912,20.005,206.912z"/>
	<path style="fill:#116FFF;" d="M215.962,286.902c-17.641,0-31.994-14.35-31.994-31.999c0-17.645,14.353-31.994,31.994-31.994
		s31.995,14.35,31.995,31.994C247.956,272.553,233.603,286.902,215.962,286.902z M215.962,230.908
		c-13.232,0-23.996,10.764-23.996,23.995c0,13.236,10.764,24,23.996,24s23.996-10.764,23.996-24
		C239.957,241.672,229.194,230.908,215.962,230.908z"/>
	<path style="fill:#116FFF;" d="M203.968,254.903c-1.293,0-2.562-0.624-3.332-1.78c-1.227-1.836-0.73-4.32,1.109-5.546
		l23.996-15.997c1.839-1.227,4.319-0.727,5.546,1.109c1.226,1.835,0.73,4.32-1.109,5.546l-23.996,15.998
		C205.499,254.685,204.73,254.903,203.968,254.903z"/>
	<path style="fill:#116FFF;" d="M227.959,262.902c-0.417,0-0.843-0.062-1.265-0.203l-23.996-7.998
		c-2.093-0.703-3.226-2.969-2.527-5.062s2.937-3.241,5.058-2.53l23.996,7.998c2.094,0.703,3.226,2.969,2.527,5.062
		C231.194,261.84,229.635,262.902,227.959,262.902z"/>
	<path style="fill:#116FFF;" d="M203.968,278.903c-1.293,0-2.562-0.625-3.332-1.781c-1.227-1.835-0.73-4.319,1.109-5.546
		l23.996-16.001c1.839-1.233,4.319-0.733,5.546,1.109c1.226,1.836,0.73,4.319-1.109,5.546l-23.996,16.001
		C205.499,278.684,204.73,278.903,203.968,278.903z"/>
</g>
<g>
</g>
<g>
</g>
<g>
</g>
<g>
</g>
<g>
</g>
<g>
</g>
<g>
</g>
<g>
</g>
<g>
</g>
<g>
</g>
<g>
</g>
<g>
</g>
<g>
</g>
<g>
</g>
<g>
</g>
</svg>
